HIERARCHY
ROOT ui
{
	 OFFSET 0 0 0
	 CHANNELS 3 XPosition YPosition Z Position
	 EndSite
	 {
	 OFFSET 0 -1 0
	 }
}
ROOT li
{
	 OFFSET 0 0 0
	 CHANNELS 3 XPosition YPosition Z Position
	 EndSite
	 {
	 OFFSET 0 -1 0
	 }
}
ROOT ul
{
	 OFFSET 0 0 0
	 CHANNELS 3 XPosition YPosition Z Position
	 EndSite
	 {
	 OFFSET 0 -1 0
	 }
}
ROOT ll
{
	 OFFSET 0 0 0
	 CHANNELS 3 XPosition YPosition Z Position
	 EndSite
	 {
	 OFFSET 0 -1 0
	 }
}
ROOT tt
{
	 OFFSET 0 0 0
	 CHANNELS 3 XPosition YPosition Z Position
	 EndSite
	 {
	 OFFSET 0 -1 0
	 }
}
ROOT tb
{
	 OFFSET 0 0 0
	 CHANNELS 3 XPosition YPosition Z Position
	 EndSite
	 {
	 OFFSET 0 -1 0
	 }
}
ROOT td
{
	 OFFSET 0 0 0
	 CHANNELS 3 XPosition YPosition Z Position
	 EndSite
	 {
	 OFFSET 0 -1 0
	 }
}
ROOT v
{
	 OFFSET 0 0 0
	 CHANNELS 3 XPosition YPosition Z Position
	 EndSite
	 {
	 OFFSET 0 -1 0
	 }
}
ROOT bn
{
	 OFFSET 0 0 0
	 CHANNELS 3 XPosition YPosition Z Position
	 EndSite
	 {
	 OFFSET 0 -1 0
	 }
}
MOTION
Frames: 32
Frame Time: 0.002
0.04159627914428711	-4.386639893054962E-4	0		0.5061847839355469	-2.4203388671875	0		-1.0734559326171875	0.06675896453857422	0		-0.6183591918945313	-2.75103955078125	0		1.81833203125	-0.09243294525146484	0		3.411587158203125	0.4006435546875	0		4.74085888671875	0.7130020751953124	0		5.84907861328125	0.4108846435546875	0		-0.17812110900878905	5.90393115234375	0		
-0.04109896469116211	-0.006110642910003662	0		0.4826268310546875	-2.415982177734375	0		-1.1480533447265624	0.066971435546875	0		-0.6848345336914062	-2.74096533203125	0		1.7827598876953126	-0.09089859771728516	0		3.376989013671875	0.40013916015625	0		4.71924755859375	0.7112666625976563	0		5.8465908203125	0.4168222351074219	0		-0.14355204772949218	5.90835009765625	0		
-0.03258142852783203	-2.6623201370239255E-4	0		0.4880805969238281	-2.412095458984375	0		-1.0666099853515625	0.0676380844116211	0		-0.6763363647460937	-2.73411279296875	0		1.770066650390625	-0.097733154296875	0		3.387201171875	0.3869087829589844	0		4.69453369140625	0.702590087890625	0		5.8618349609375	0.40547760009765627	0		-0.159986572265625	5.91260498046875	0		
-0.024072704315185548	0.0055868821144104	0		0.4706458740234375	-2.400823974609375	0		-1.12800927734375	0.07964740753173828	0		-0.6637789306640625	-2.723318115234375	0		1.75536474609375	-0.104523681640625	0		3.36612744140625	0.4182084045410156	0		4.66794091796875	0.701960205078125	0		5.87149560546875	0.4202430419921875	0		-0.1415723419189453	5.90829736328125	0		
0.05122231674194336	-6.398069858551026E-4	0		0.48803704833984374	-2.399108154296875	0		-1.0675478515625	0.08367679595947265	0		-0.6624381713867188	-2.724327392578125	0		1.723460205078125	-0.1220172119140625	0		3.302921630859375	0.3822071533203125	0		4.6490927734375	0.687221923828125	0		5.87287060546875	0.41916259765625	0		-0.21025941467285156	5.9004287109375	0		
-0.025419233322143554	6.409069895744324E-4	0		0.4794935302734375	-2.390946044921875	0		-1.0662154541015625	0.08269174957275391	0		-0.6679198608398438	-2.71220361328125	0		1.710530517578125	-0.13879864501953126	0		3.29547119140625	0.3943242797851563	0		4.60919091796875	0.6718533325195313	0		5.887302734375	0.42389492797851563	0		-0.17675883483886717	5.90591015625	0		
-0.027205966949462892	-0.0042781920433044435	0		0.48075045776367187	-2.39191943359375	0		-1.0598878173828126	0.08465000915527343	0		-0.653765869140625	-2.71937890625	0		1.7046776123046874	-0.14766726684570314	0		3.292458740234375	0.3753936157226562	0		4.588232421875	0.656205322265625	0		5.89782958984375	0.4377236328125	0		-0.16219984436035156	5.91872802734375	0		
-0.022928661346435546	-0.0012642580270767212	0		0.4341470336914062	-2.38007470703125	0		-1.0664444580078125	0.0978509521484375	0		-0.6454447631835938	-2.712426025390625	0		1.6956768798828126	-0.1614515380859375	0		3.27089013671875	0.3878064880371094	0		4.566453125	0.6556098022460938	0		5.89902880859375	0.43574105834960936	0		-0.11265280914306641	5.93500341796875	0		
0.046330459594726564	0.004721958160400391	0		0.4823443298339844	-2.37674658203125	0		-1.0521280517578124	0.10774528503417968	0		-0.7101196899414063	-2.700239501953125	0		1.6476556396484374	-0.1715558319091797	0		3.255720458984375	0.36815213012695314	0		4.55613671875	0.6268662719726562	0		5.9045615234375	0.4587359313964844	0		-0.14655441284179688	5.9296806640625	0		
-0.026539045333862303	0.009081520080566407	0		0.42947625732421874	-2.371717529296875	0		-1.0510726318359376	0.10689743041992188	0		-0.6351542358398438	-2.70630224609375	0		1.6256307373046874	-0.17703974914550782	0		3.266874267578125	0.37311721801757813	0		4.54595068359375	0.611171875	0		5.92333740234375	0.44055923461914065	0		-0.16063084411621092	5.91907568359375	0		
0.05326666259765625	-0.002016438961029053	0		0.47449053955078124	-2.369244873046875	0		-1.056025390625	0.11119599151611329	0		-0.7179600219726563	-2.691726806640625	0		1.6013184814453125	-0.19443708801269532	0		3.23944970703125	0.3487635498046875	0		4.5356884765625	0.596532958984375	0		5.92043505859375	0.447797119140625	0		-0.1616105194091797	5.92030517578125	0		
-0.028762474060058593	0.004595211029052734	0		0.422434326171875	-2.36412646484375	0		-1.0501153564453125	0.11336732482910156	0		-0.6462471313476562	-2.701637939453125	0		1.603014892578125	-0.20520582580566407	0		3.23623046875	0.34307159423828126	0		4.52307763671875	0.56698828125	0		5.92129736328125	0.4470313415527344	0		-0.14652125549316405	5.9323251953125	0		
-0.0280174446105957	0.0039036059379577636	0		0.43407534790039065	-2.37099853515625	0		-1.1162298583984376	0.12177578735351563	0		-0.7054986572265625	-2.701343994140625	0		1.60436572265625	-0.2299134063720703	0		3.234533203125	0.31541082763671874	0		4.5277080078125	0.5592241821289062	0		5.93102587890625	0.4451819763183594	0		-0.14478260803222656	5.93061767578125	0		
-0.013500789642333984	-0.002956682920455933	0		0.4319372863769531	-2.3565830078125	0		-1.0315091552734375	0.12676582336425782	0		-0.6638726196289062	-2.701647705078125	0		1.6049825439453125	-0.23054586791992188	0		3.240363037109375	0.3276934509277344	0		4.5239814453125	0.5376581420898437	0		5.930921875	0.46156069946289063	0		-0.11301807403564453	5.9384765625	0		
-0.022869781494140626	0.0056372971534729005	0		0.4225523681640625	-2.34898876953125	0		-1.112917724609375	0.13354147338867187	0		-0.71730078125	-2.696331298828125	0		1.60815234375	-0.25016111755371095	0		3.232140625	0.28426226806640625	0		4.520119140625	0.5161586303710938	0		5.9192744140625	0.4531909484863281	0		-0.14859806823730468	5.93449853515625	0		
-0.026573177337646484	0.0021986870765686034	0		0.4556489562988281	-2.365032470703125	0		-1.0484334716796875	0.14098460388183592	0		-0.6501592407226563	-2.709934326171875	0		1.602367431640625	-0.25856494140625	0		3.23658349609375	0.2896937561035156	0		4.5151201171875	0.4947424621582031	0		5.9276181640625	0.4525597534179687	0		-0.16340315246582032	5.9252412109375	0		
-0.026360719680786134	0.001759511947631836	0		0.4190494079589844	-2.35386572265625	0		-1.1232110595703124	0.14177490234375	0		-0.7170825805664063	-2.718273681640625	0		1.604415771484375	-0.2690338439941406	0		3.24718701171875	0.25208258056640626	0		4.519970703125	0.47222906494140626	0		5.92394580078125	0.45919161987304685	0		-0.15000186157226564	5.9365869140625	0		
-0.026271038055419922	0.0013863879442214966	0		0.43104159545898435	-2.360434326171875	0		-1.034952880859375	0.15095533752441406	0		-0.6461143188476562	-2.7268115234375	0		1.6094066162109375	-0.27548641967773435	0		3.22870556640625	0.278021240234375	0		4.52060009765625	0.4438482666015625	0		5.93205029296875	0.4596936340332031	0		-0.1499022674560547	5.9372138671875	0		
-0.022238906860351564	0.004013321876525879	0		0.4330597839355469	-2.35877392578125	0		-1.1058944091796874	0.15581159973144532	0		-0.7092018432617188	-2.731084716796875	0		1.619192138671875	-0.28795437622070313	0		3.236031494140625	0.2375914001464844	0		4.52746728515625	0.43643157958984374	0		5.941015625	0.45824462890625	0		-0.11683037567138672	5.9423642578125	0		
0.0546331787109375	0.0015088080167770387	0		0.47497076416015627	-2.358704345703125	0		-1.030005859375	0.15432273864746093	0		-0.6554071044921875	-2.738211669921875	0		1.619697265625	-0.31220806884765623	0		3.26592626953125	0.23685963439941407	0		4.53200439453125	0.4141136474609375	0		5.931931640625	0.4591540832519531	0		-0.15101237487792968	5.93768115234375	0		
-0.022503095626831053	0.0035947790145874022	0		0.412029296875	-2.344849609375	0		-1.0369547119140625	0.16725881958007813	0		-0.6538659057617188	-2.756419189453125	0		1.6195343017578125	-0.31238525390625	0		3.241454833984375	0.21807862854003907	0		4.52749755859375	0.39300473022460936	0		5.9368828125	0.4658936462402344	0		-0.15314193725585937	5.93953662109375	0		
0.05121637344360352	-0.001733157992362976	0		0.4435716247558594	-2.360487548828125	0		-1.0371595458984375	0.1671453857421875	0		-0.6523855590820312	-2.775563232421875	0		1.613198486328125	-0.32040179443359373	0		3.266951171875	0.1995368194580078	0		4.53883203125	0.36469268798828125	0		5.94054638671875	0.4577087707519531	0		-0.1523575439453125	5.93840625	0		
-0.02698734664916992	4.924069941043854E-4	0		0.4013251953125	-2.360853271484375	0		-1.09831591796875	0.17209393310546875	0		-0.6488851928710937	-2.791679443359375	0		1.6166549072265626	-0.3395223693847656	0		3.260377197265625	0.1785770721435547	0		4.53735595703125	0.3496473388671875	0		5.94444775390625	0.4655753173828125	0		-0.15159197998046875	5.9373359375	0		
0.05379109573364258	0.0011670069694519043	0		0.4321022033691406	-2.359359619140625	0		-1.005341552734375	0.1845736846923828	0		-0.6532034301757812	-2.795606689453125	0		1.623146728515625	-0.35563656616210937	0		3.28114794921875	0.1792251434326172	0		4.54376806640625	0.32852371215820314	0		5.94033740234375	0.4736234436035156	0		-0.12068781280517578	5.9448310546875	0		
-0.023428932189941406	0.003490485906600952	0		0.40081503295898435	-2.360792724609375	0		-1.087494384765625	0.19098394775390626	0		-0.6307462768554688	-2.8129189453125	0		1.606572021484375	-0.3753194274902344	0		3.257396240234375	0.14865046691894532	0		4.5401787109375	0.3076131286621094	0		5.94396142578125	0.4655892639160156	0		-0.13606735229492187	5.93513916015625	0		
0.05025125885009766	-0.0016113569736480712	0		0.4405332336425781	-2.36233935546875	0		-1.0117474975585938	0.18985586547851563	0		-0.681216064453125	-2.824979248046875	0		1.60081689453125	-0.4061311340332031	0		3.283853759765625	0.1303004150390625	0		4.5404765625	0.2796828308105469	0		5.93572119140625	0.4657935791015625	0		-0.17034925842285156	5.9308115234375	0		
-0.05700565338134766	-0.0016905909776687622	0		0.42112881469726565	-2.3708671875	0		-1.0879739990234376	0.19127622985839843	0		-0.6129979248046875	-2.856940185546875	0		1.598114990234375	-0.43394573974609374	0		3.292401611328125	0.11728833770751954	0		4.53689599609375	0.2588580322265625	0		5.93548681640625	0.46590447998046874	0		-0.18571470642089843	5.92022412109375	0		
0.04978165054321289	-0.0012399280071258545	0		0.42770660400390625	-2.380775634765625	0		-1.083137939453125	0.19541497802734376	0		-0.646502197265625	-2.87117919921875	0		1.6015662841796876	-0.45281658935546876	0		3.284189208984375	0.11859369659423828	0		4.53232275390625	0.23808709716796875	0		5.943259765625	0.465918212890625	0		-0.15552386474609375	5.941939453125	0		
-0.024364690780639648	0.004230498790740967	0		0.40049041748046876	-2.378083251953125	0		-1.0742271728515624	0.20353359985351563	0		-0.622011474609375	-2.886326171875	0		1.596812255859375	-0.48451312255859375	0		3.274328125	0.07995877075195312	0		4.5548701171875	0.2239061737060547	0		5.9471748046875	0.47402883911132815	0		-0.12159200286865235	5.94663525390625	0		
0.04934661865234375	-6.9206702709198E-4	0		0.42312442016601565	-2.385171630859375	0		-1.0102974853515625	0.21178932189941407	0		-0.6266941528320312	-2.911952392578125	0		1.59721337890625	-0.5072544860839844	0		3.304095947265625	0.07871227264404297	0		4.53621826171875	0.19743504333496092	0		5.94696875	0.47423724365234377	0		-0.1368970489501953	5.9361806640625	0		
-0.028831974029541015	0.0019266560077667236	0		0.4266322937011719	-2.39990869140625	0		-1.010499755859375	0.21213938903808593	0		-0.5614835205078125	-2.9446923828125	0		1.6483824462890626	-0.5447988891601563	0		3.275499755859375	0.0554573974609375	0		4.54366845703125	0.17656631469726564	0		5.95065478515625	0.46740969848632813	0		-0.18723066711425781	5.9233427734375	0		
0.04487199401855469	-0.003924629926681519	0		0.4223048095703125	-2.404480712890625	0		-1.086672607421875	0.21478007507324218	0		-0.6119628295898437	-2.957486572265625	0		1.629808837890625	-0.5661588745117188	0		3.273016845703125	0.03880413818359375	0		4.53810595703125	0.15494102478027344	0		5.93857666015625	0.474871337890625	0		-0.1560044708251953	5.94320068359375	0		
